<svg width="13" height="18" viewBox="0 0 13 18" fill="none" xmlns="http://www.w3.org/2000/svg">
<path d="M12.3715 9.15596C11.9784 8.64766 11.3852 8.29852 10.592 8.10876C11.6021 7.59351 12.046 6.71901 11.9241 5.48511C11.8834 5.03767 11.7597 4.64989 11.5529 4.32119C11.3459 3.99243 11.0666 3.72812 10.7138 3.52818C10.3614 3.32798 9.97804 3.17559 9.56472 3.07052C9.15129 2.96545 8.67665 2.88917 8.1411 2.84176V0.279297H6.5753V2.77057C6.30416 2.77057 5.89066 2.77733 5.33485 2.7909V0.279297H3.76883V2.84176C3.54506 2.84856 3.21633 2.85202 2.7825 2.85202L0.626831 2.84176V4.50942H1.75545C2.27066 4.50942 2.57233 4.73996 2.66044 5.20086V8.11927C2.72832 8.11927 2.7825 8.12276 2.8232 8.12952H2.66044V12.2171C2.60627 12.5627 2.40971 12.7357 2.07072 12.7357H0.942171L0.626902 14.5966H2.66062C2.78944 14.5966 2.97574 14.5983 3.21989 14.6014C3.46389 14.6048 3.64685 14.6065 3.7689 14.6065V17.1994H5.33517V14.637C5.6198 14.6439 6.0333 14.6472 6.57562 14.6472V17.1994H8.14145V14.6065C8.69745 14.5794 9.19058 14.5288 9.62085 14.454C10.0513 14.3792 10.4633 14.2624 10.8564 14.103C11.2494 13.9438 11.5781 13.7454 11.8425 13.5081C12.107 13.2711 12.3254 12.9693 12.4985 12.6032C12.6711 12.237 12.7814 11.8133 12.8287 11.3319C12.9172 10.3899 12.7646 9.66448 12.3715 9.15596ZM5.3653 4.62097C5.41277 4.62097 5.54665 4.61926 5.76697 4.61584C5.98739 4.61235 6.17035 4.609 6.31609 4.60558C6.46186 4.60224 6.65846 4.61071 6.90599 4.63105C7.15341 4.65138 7.36183 4.67856 7.53125 4.71239C7.70068 4.74623 7.88727 4.80218 8.09045 4.88014C8.29399 4.95803 8.45658 5.05299 8.57846 5.16482C8.70058 5.27665 8.80394 5.41908 8.88852 5.59196C8.97336 5.7648 9.01574 5.96307 9.01574 6.18673C9.01574 6.37656 8.98529 6.54948 8.92435 6.70547C8.86352 6.86136 8.77178 6.99189 8.6499 7.09696C8.52799 7.20206 8.40234 7.29366 8.27352 7.37155C8.14484 7.44945 7.98029 7.5122 7.78038 7.5596C7.58051 7.60708 7.40596 7.64437 7.25691 7.67144C7.10775 7.69858 6.92137 7.71727 6.69764 7.72739C6.47386 7.7375 6.30433 7.74441 6.18915 7.74776C6.07387 7.75111 5.9163 7.75111 5.71625 7.74776C5.51616 7.74441 5.39938 7.74263 5.3654 7.74263L5.3653 4.62097ZM9.64129 11.5456C9.57672 11.7016 9.49381 11.8372 9.3922 11.9526C9.29041 12.0676 9.15646 12.1694 8.99046 12.2574C8.82449 12.3457 8.66333 12.4167 8.50755 12.4709C8.35155 12.5254 8.16336 12.5726 7.94325 12.6134C7.72265 12.6541 7.52958 12.6828 7.36333 12.6998C7.19732 12.7168 6.99912 12.7303 6.76855 12.7406C6.53815 12.7505 6.3584 12.7557 6.22965 12.7557C6.10083 12.7557 5.9381 12.7538 5.7415 12.7505C5.5448 12.7474 5.4195 12.7456 5.36522 12.7456V9.30857C5.4194 9.30857 5.58041 9.30526 5.84824 9.29835C6.11611 9.29151 6.33461 9.28835 6.5041 9.28835C6.67356 9.28835 6.90752 9.29835 7.20591 9.31883C7.50401 9.33903 7.75485 9.36941 7.95839 9.41008C8.16168 9.45082 8.38353 9.51344 8.62436 9.59827C8.86495 9.68297 9.05994 9.78632 9.20914 9.90834C9.35829 10.0306 9.48362 10.1862 9.58527 10.3761C9.68717 10.5659 9.73799 10.7828 9.73799 11.027C9.73795 11.217 9.70579 11.3896 9.64129 11.5456Z" fill="white"/>
</svg>
