<svg width="52" height="22" viewBox="0 0 52 22" fill="none" xmlns="http://www.w3.org/2000/svg">
    <path d="M37 17.7692C37 13.5634 40.3579 10.1538 44.5 10.1538C48.6421 10.1538 52 13.5634 52 17.7692V22H37V17.7692Z" fill="#FE3355"/>
    <path d="M48.6667 4.23077C48.6667 6.56736 46.8012 8.46154 44.5 8.46154C42.1988 8.46154 40.3333 6.56736 40.3333 4.23077C40.3333 1.89418 42.1988 0 44.5 0C46.8012 0 48.6667 1.89418 48.6667 4.23077Z" fill="#FE3355"/>
    <path d="M19 17.7692C19 14.1012 21.9245 11.1538 25.5 11.1538C29.0755 11.1538 32 14.1012 32 17.7692V21H19V17.7692ZM28.6667 4.23077C28.6667 6.02952 27.2346 7.46154 25.5 7.46154C23.7654 7.46154 22.3333 6.02952 22.3333 4.23077C22.3333 2.43202 23.7654 1 25.5 1C27.2346 1 28.6667 2.43202 28.6667 4.23077Z" stroke="#FE3355" stroke-width="2"/>
    <path d="M0 17.7692C0 13.5634 3.35786 10.1538 7.5 10.1538C11.6421 10.1538 15 13.5634 15 17.7692V22H0V17.7692Z" fill="#FE3355"/>
    <path d="M11.6667 4.23077C11.6667 6.56736 9.80119 8.46154 7.5 8.46154C5.19881 8.46154 3.33333 6.56736 3.33333 4.23077C3.33333 1.89418 5.19881 0 7.5 0C9.80119 0 11.6667 1.89418 11.6667 4.23077Z" fill="#FE3355"/>
</svg>
