<svg width="120" height="120" viewBox="0 0 120 120" fill="none" xmlns="http://www.w3.org/2000/svg">
    <circle cx="60" cy="60" r="39.5" stroke="#FE3355"/>
    <circle opacity="0.2" cx="60" cy="60" r="59.5" stroke="#FE3355"/>
    <path fill-rule="evenodd" clip-rule="evenodd" d="M61.8399 60.8261C61.7092 60.8363 61.034 60.8782 59.5278 60.8782C58.3298 60.8782 57.4792 60.8408 57.1808 60.8261C52.5512 60.6147 49.0956 59.7778 49.0956 58.7758C49.0956 57.7738 52.5512 56.938 57.1808 56.7231V59.9926C57.4836 60.0153 58.3505 60.0684 59.5485 60.0684C60.986 60.0684 61.7059 60.0062 61.8355 59.9938V56.7254C66.4553 56.9391 69.9033 57.776 69.9033 58.7758C69.9033 59.7755 66.4564 60.6124 61.8355 60.825L61.8399 60.8261ZM61.8399 56.3872V53.4615H68.2871V49H50.7336V53.4615H57.1797V56.3861C51.9402 56.636 48 57.7138 48 59.0053C48 60.2969 51.9402 61.3735 57.1797 61.6246V71H61.8388V61.6212C67.0663 61.3713 71 60.2946 71 59.0042C71 57.7138 67.0696 56.6372 61.8388 56.3861L61.8399 56.3872Z" fill="white"/>
</svg>