<svg width="19" height="19" viewBox="0 0 19 19" fill="none" xmlns="http://www.w3.org/2000/svg">
<path fill-rule="evenodd" clip-rule="evenodd" d="M11.3326 9.87998C11.2258 9.88824 10.6739 9.92221 9.44272 9.92221C8.46351 9.92221 7.76827 9.89191 7.52435 9.87998C3.74014 9.70829 0.915554 9.02889 0.915554 8.21544C0.915554 7.402 3.74014 6.72351 7.52435 6.54907V9.20333C7.77183 9.22169 8.48042 9.26484 9.45963 9.26484C10.6347 9.26484 11.2231 9.21435 11.329 9.20425V6.55091C15.1052 6.72443 17.9236 7.40383 17.9236 8.21544C17.9236 9.02705 15.1061 9.70645 11.329 9.87906L11.3326 9.87998ZM11.3326 6.27639V3.90124H16.6025V0.279297H2.25441V3.90124H7.52346V6.27548C3.24074 6.47838 0.0200195 7.35334 0.0200195 8.40182C0.0200195 9.4503 3.24074 10.3243 7.52346 10.5282V18.1393H11.3317V10.5254C15.6046 10.3225 18.82 9.44847 18.82 8.4009C18.82 7.35334 15.6073 6.4793 11.3317 6.27548L11.3326 6.27639Z" fill="white"/>
</svg>
