<svg width="184" height="100" viewBox="0 0 184 100" fill="none" xmlns="http://www.w3.org/2000/svg">
    <!-- <g filter="url(#filter0_b)"> -->
        <path d="M2.43897 39.2237L38.6489 95.4166C40.4899 98.2736 43.656 100 47.0548 100L174 100C179.523 100 184 95.5228 184 90L184 10C184 4.47719 179.523 4.21421e-05 174 4.07456e-05L25.7355 2.33729e-06C22.2888 2.03597e-06 19.0851 1.77496 17.2573 4.69713L2.36672 28.5041C0.311821 31.7895 0.339975 35.9663 2.43897 39.2237Z" fill="url(#paint0_linear)" fill-opacity="0.75"/>
    <!-- </g> -->
    <path d="M85.0224 37.8L85.0224 63L79.1904 63L79.1904 42.48L74.1504 42.48L74.1504 37.8L85.0224 37.8ZM100.2 63.432C98.1121 63.432 96.2521 62.916 94.6201 61.884C92.9881 60.852 91.7041 59.364 90.7681 57.42C89.8561 55.452 89.4001 53.112 89.4001 50.4C89.4001 47.688 89.8561 45.36 90.7681 43.416C91.7041 41.448 92.9881 39.948 94.6201 38.916C96.2521 37.884 98.1121 37.368 100.2 37.368C102.288 37.368 104.148 37.884 105.78 38.916C107.412 39.948 108.684 41.448 109.596 43.416C110.532 45.36 111 47.688 111 50.4C111 53.112 110.532 55.452 109.596 57.42C108.684 59.364 107.412 60.852 105.78 61.884C104.148 62.916 102.288 63.432 100.2 63.432ZM100.2 58.5C101.736 58.5 102.936 57.84 103.8 56.52C104.688 55.2 105.132 53.16 105.132 50.4C105.132 47.64 104.688 45.6 103.8 44.28C102.936 42.96 101.736 42.3 100.2 42.3C98.6881 42.3 97.4881 42.96 96.6001 44.28C95.7361 45.6 95.3041 47.64 95.3041 50.4C95.3041 53.16 95.7361 55.2 96.6001 56.52C97.4881 57.84 98.6881 58.5 100.2 58.5ZM119.666 51.408C117.818 51.408 116.306 50.784 115.13 49.536C113.978 48.264 113.402 46.572 113.402 44.46C113.402 42.348 113.978 40.668 115.13 39.42C116.306 38.148 117.818 37.512 119.666 37.512C121.514 37.512 123.014 38.148 124.166 39.42C125.318 40.668 125.894 42.348 125.894 44.46C125.894 46.572 125.318 48.264 124.166 49.536C123.014 50.784 121.514 51.408 119.666 51.408ZM134.678 37.8L138.962 37.8L121.754 63L117.47 63L134.678 37.8ZM119.666 48.456C120.482 48.456 121.118 48.12 121.574 47.448C122.054 46.776 122.294 45.78 122.294 44.46C122.294 43.14 122.054 42.144 121.574 41.472C121.118 40.8 120.482 40.464 119.666 40.464C118.874 40.464 118.238 40.812 117.758 41.508C117.278 42.18 117.038 43.164 117.038 44.46C117.038 45.756 117.278 46.752 117.758 47.448C118.238 48.12 118.874 48.456 119.666 48.456ZM136.766 63.288C135.566 63.288 134.486 63.012 133.526 62.46C132.59 61.884 131.858 61.068 131.33 60.012C130.802 58.956 130.538 57.732 130.538 56.34C130.538 54.948 130.802 53.724 131.33 52.668C131.858 51.612 132.59 50.808 133.526 50.256C134.486 49.68 135.566 49.392 136.766 49.392C138.614 49.392 140.114 50.028 141.266 51.3C142.442 52.548 143.03 54.228 143.03 56.34C143.03 58.452 142.442 60.144 141.266 61.416C140.114 62.664 138.614 63.288 136.766 63.288ZM136.766 60.336C137.582 60.336 138.218 60 138.674 59.328C139.154 58.632 139.394 57.636 139.394 56.34C139.394 55.044 139.154 54.06 138.674 53.388C138.218 52.692 137.582 52.344 136.766 52.344C135.974 52.344 135.338 52.68 134.858 53.352C134.378 54.024 134.138 55.02 134.138 56.34C134.138 57.66 134.378 58.656 134.858 59.328C135.338 60 135.974 60.336 136.766 60.336Z" fill="white"/>
    <defs>
        <filter id="filter0_b" x="-9.15503" y="-10" width="203.155" height="120" filterUnits="userSpaceOnUse" color-interpolation-filters="sRGB">
            <feFlood flood-opacity="0" result="BackgroundImageFix"/>
            <feGaussianBlur in="BackgroundImage" stdDeviation="5"/>
            <feComposite in2="SourceAlpha" operator="in" result="effect1_backgroundBlur"/>
            <feBlend mode="normal" in="SourceGraphic" in2="effect1_backgroundBlur" result="shape"/>
        </filter>
        <linearGradient id="paint0_linear" x1="-60.6178" y1="95.3379" x2="421.5" y2="95.3379" gradientUnits="userSpaceOnUse">
            <stop stop-color="#FB2454"/>
            <stop offset="1" stop-color="#FB2454" stop-opacity="0"/>
        </linearGradient>
    </defs>
</svg>
