<svg width="244" height="100" viewBox="0 0 244 100" fill="none" xmlns="http://www.w3.org/2000/svg">
    <!-- <g filter="url(#filter0_b)"> -->
        <path d="M241.561 39.2237L205.351 95.4166C203.51 98.2736 200.344 100 196.945 100L10 100C4.47717 100 8.35087e-06 95.5228 7.86805e-06 90L8.74229e-07 10C3.91407e-07 4.47719 4.47716 4.24457e-05 10 4.14235e-05L218.264 2.33729e-06C221.711 2.03597e-06 224.915 1.77496 226.743 4.69713L241.633 28.5041C243.688 31.7895 243.66 35.9663 241.561 39.2237Z" fill="url(#paint0_linear)" fill-opacity="0.75"/>
    <!-- </g> -->
    <path d="M60.232 58.248L60.232 63L41.188 63L41.188 59.22L50.908 50.04C51.94 49.056 52.636 48.216 52.996 47.52C53.356 46.8 53.536 46.092 53.536 45.396C53.536 44.388 53.188 43.62 52.492 43.092C51.82 42.54 50.824 42.264 49.504 42.264C48.4 42.264 47.404 42.48 46.516 42.912C45.628 43.32 44.884 43.944 44.284 44.784L40.036 42.048C41.02 40.584 42.376 39.444 44.104 38.628C45.832 37.788 47.812 37.368 50.044 37.368C51.916 37.368 53.548 37.68 54.94 38.304C56.356 38.904 57.448 39.768 58.216 40.896C59.008 42 59.404 43.308 59.404 44.82C59.404 46.188 59.116 47.472 58.54 48.672C57.964 49.872 56.848 51.24 55.192 52.776L49.396 58.248L60.232 58.248ZM73.3681 63.432C71.2801 63.432 69.4201 62.916 67.7881 61.884C66.1561 60.852 64.8721 59.364 63.9361 57.42C63.0241 55.452 62.5681 53.112 62.5681 50.4C62.5681 47.688 63.0241 45.36 63.9361 43.416C64.8721 41.448 66.1561 39.948 67.7881 38.916C69.4201 37.884 71.2801 37.368 73.3681 37.368C75.4561 37.368 77.3161 37.884 78.9481 38.916C80.5801 39.948 81.8521 41.448 82.7641 43.416C83.7001 45.36 84.1681 47.688 84.1681 50.4C84.1681 53.112 83.7001 55.452 82.7641 57.42C81.8521 59.364 80.5801 60.852 78.9481 61.884C77.3161 62.916 75.4561 63.432 73.3681 63.432ZM73.3681 58.5C74.9041 58.5 76.1041 57.84 76.9681 56.52C77.8561 55.2 78.3001 53.16 78.3001 50.4C78.3001 47.64 77.8561 45.6 76.9681 44.28C76.1041 42.96 74.9041 42.3 73.3681 42.3C71.8561 42.3 70.6561 42.96 69.7681 44.28C68.9041 45.6 68.4721 47.64 68.4721 50.4C68.4721 53.16 68.9041 55.2 69.7681 56.52C70.6561 57.84 71.8561 58.5 73.3681 58.5ZM92.8337 51.408C90.9857 51.408 89.4737 50.784 88.2977 49.536C87.1457 48.264 86.5697 46.572 86.5697 44.46C86.5697 42.348 87.1457 40.668 88.2977 39.42C89.4737 38.148 90.9857 37.512 92.8337 37.512C94.6817 37.512 96.1817 38.148 97.3337 39.42C98.4857 40.668 99.0617 42.348 99.0617 44.46C99.0617 46.572 98.4857 48.264 97.3337 49.536C96.1817 50.784 94.6817 51.408 92.8337 51.408ZM107.846 37.8L112.13 37.8L94.9217 63L90.6377 63L107.846 37.8ZM92.8337 48.456C93.6497 48.456 94.2857 48.12 94.7417 47.448C95.2217 46.776 95.4617 45.78 95.4617 44.46C95.4617 43.14 95.2217 42.144 94.7417 41.472C94.2857 40.8 93.6497 40.464 92.8337 40.464C92.0417 40.464 91.4057 40.812 90.9257 41.508C90.4457 42.18 90.2057 43.164 90.2057 44.46C90.2057 45.756 90.4457 46.752 90.9257 47.448C91.4057 48.12 92.0417 48.456 92.8337 48.456ZM109.934 63.288C108.734 63.288 107.654 63.012 106.694 62.46C105.758 61.884 105.026 61.068 104.498 60.012C103.97 58.956 103.706 57.732 103.706 56.34C103.706 54.948 103.97 53.724 104.498 52.668C105.026 51.612 105.758 50.808 106.694 50.256C107.654 49.68 108.734 49.392 109.934 49.392C111.782 49.392 113.282 50.028 114.434 51.3C115.61 52.548 116.198 54.228 116.198 56.34C116.198 58.452 115.61 60.144 114.434 61.416C113.282 62.664 111.782 63.288 109.934 63.288ZM109.934 60.336C110.75 60.336 111.386 60 111.842 59.328C112.322 58.632 112.562 57.636 112.562 56.34C112.562 55.044 112.322 54.06 111.842 53.388C111.386 52.692 110.75 52.344 109.934 52.344C109.142 52.344 108.506 52.68 108.026 53.352C107.546 54.024 107.306 55.02 107.306 56.34C107.306 57.66 107.546 58.656 108.026 59.328C108.506 60 109.142 60.336 109.934 60.336Z" fill="white"/>
    <defs>
        <filter id="filter0_b" x="-10" y="-10" width="263.155" height="120" filterUnits="userSpaceOnUse" color-interpolation-filters="sRGB">
            <feFlood flood-opacity="0" result="BackgroundImageFix"/>
            <feGaussianBlur in="BackgroundImage" stdDeviation="5"/>
            <feComposite in2="SourceAlpha" operator="in" result="effect1_backgroundBlur"/>
            <feBlend mode="normal" in="SourceGraphic" in2="effect1_backgroundBlur" result="shape"/>
        </filter>
        <linearGradient id="paint0_linear" x1="494.739" y1="93.0234" x2="45.3341" y2="-29.6485" gradientUnits="userSpaceOnUse">
            <stop stop-color="#274D72" stop-opacity="0.2"/>
            <stop offset="1" stop-color="#274D72"/>
        </linearGradient>
    </defs>
</svg>
