<svg width="244" height="100" viewBox="0 0 244 100" fill="none" xmlns="http://www.w3.org/2000/svg">
    <!-- <g filter="url(#filter0_b)"> -->
        <path d="M2.43897 39.2237L38.6489 95.4166C40.4899 98.2736 43.656 100 47.0548 100L234 100C239.523 100 244 95.5228 244 90L244 10C244 4.47719 239.523 4.24457e-05 234 4.14235e-05L25.7355 2.33729e-06C22.2888 2.03597e-06 19.0851 1.77496 17.2573 4.69713L2.36672 28.5041C0.311821 31.7895 0.339975 35.9663 2.43897 39.2237Z" fill="url(#paint0_linear)" fill-opacity="0.75"/>
    <!-- </g> -->
    <path d="M147.064 58.248L147.064 63L128.02 63L128.02 59.22L137.74 50.04C138.772 49.056 139.468 48.216 139.828 47.52C140.188 46.8 140.368 46.092 140.368 45.396C140.368 44.388 140.02 43.62 139.324 43.092C138.652 42.54 137.656 42.264 136.336 42.264C135.232 42.264 134.236 42.48 133.348 42.912C132.46 43.32 131.716 43.944 131.116 44.784L126.868 42.048C127.852 40.584 129.208 39.444 130.936 38.628C132.664 37.788 134.644 37.368 136.876 37.368C138.748 37.368 140.38 37.68 141.772 38.304C143.188 38.904 144.28 39.768 145.048 40.896C145.84 42 146.236 43.308 146.236 44.82C146.236 46.188 145.948 47.472 145.372 48.672C144.796 49.872 143.68 51.24 142.024 52.776L136.228 58.248L147.064 58.248ZM160.2 63.432C158.112 63.432 156.252 62.916 154.62 61.884C152.988 60.852 151.704 59.364 150.768 57.42C149.856 55.452 149.4 53.112 149.4 50.4C149.4 47.688 149.856 45.36 150.768 43.416C151.704 41.448 152.988 39.948 154.62 38.916C156.252 37.884 158.112 37.368 160.2 37.368C162.288 37.368 164.148 37.884 165.78 38.916C167.412 39.948 168.684 41.448 169.596 43.416C170.532 45.36 171 47.688 171 50.4C171 53.112 170.532 55.452 169.596 57.42C168.684 59.364 167.412 60.852 165.78 61.884C164.148 62.916 162.288 63.432 160.2 63.432ZM160.2 58.5C161.736 58.5 162.936 57.84 163.8 56.52C164.688 55.2 165.132 53.16 165.132 50.4C165.132 47.64 164.688 45.6 163.8 44.28C162.936 42.96 161.736 42.3 160.2 42.3C158.688 42.3 157.488 42.96 156.6 44.28C155.736 45.6 155.304 47.64 155.304 50.4C155.304 53.16 155.736 55.2 156.6 56.52C157.488 57.84 158.688 58.5 160.2 58.5ZM179.666 51.408C177.818 51.408 176.306 50.784 175.13 49.536C173.978 48.264 173.402 46.572 173.402 44.46C173.402 42.348 173.978 40.668 175.13 39.42C176.306 38.148 177.818 37.512 179.666 37.512C181.514 37.512 183.014 38.148 184.166 39.42C185.318 40.668 185.894 42.348 185.894 44.46C185.894 46.572 185.318 48.264 184.166 49.536C183.014 50.784 181.514 51.408 179.666 51.408ZM194.678 37.8L198.962 37.8L181.754 63L177.47 63L194.678 37.8ZM179.666 48.456C180.482 48.456 181.118 48.12 181.574 47.448C182.054 46.776 182.294 45.78 182.294 44.46C182.294 43.14 182.054 42.144 181.574 41.472C181.118 40.8 180.482 40.464 179.666 40.464C178.874 40.464 178.238 40.812 177.758 41.508C177.278 42.18 177.038 43.164 177.038 44.46C177.038 45.756 177.278 46.752 177.758 47.448C178.238 48.12 178.874 48.456 179.666 48.456ZM196.766 63.288C195.566 63.288 194.486 63.012 193.526 62.46C192.59 61.884 191.858 61.068 191.33 60.012C190.802 58.956 190.538 57.732 190.538 56.34C190.538 54.948 190.802 53.724 191.33 52.668C191.858 51.612 192.59 50.808 193.526 50.256C194.486 49.68 195.566 49.392 196.766 49.392C198.614 49.392 200.114 50.028 201.266 51.3C202.442 52.548 203.03 54.228 203.03 56.34C203.03 58.452 202.442 60.144 201.266 61.416C200.114 62.664 198.614 63.288 196.766 63.288ZM196.766 60.336C197.582 60.336 198.218 60 198.674 59.328C199.154 58.632 199.394 57.636 199.394 56.34C199.394 55.044 199.154 54.06 198.674 53.388C198.218 52.692 197.582 52.344 196.766 52.344C195.974 52.344 195.338 52.68 194.858 53.352C194.378 54.024 194.138 55.02 194.138 56.34C194.138 57.66 194.378 58.656 194.858 59.328C195.338 60 195.974 60.336 196.766 60.336Z" fill="white"/>
    <defs>
        <filter id="filter0_b" x="-9.15503" y="-10" width="263.155" height="120" filterUnits="userSpaceOnUse" color-interpolation-filters="sRGB">
            <feFlood flood-opacity="0" result="BackgroundImageFix"/>
            <feGaussianBlur in="BackgroundImage" stdDeviation="5"/>
            <feComposite in2="SourceAlpha" operator="in" result="effect1_backgroundBlur"/>
            <feBlend mode="normal" in="SourceGraphic" in2="effect1_backgroundBlur" result="shape"/>
        </filter>
        <linearGradient id="paint0_linear" x1="-140.618" y1="95.3379" x2="341.5" y2="95.3379" gradientUnits="userSpaceOnUse">
            <stop stop-color="#FB2454"/>
            <stop offset="1" stop-color="#FB2454" stop-opacity="0"/>
        </linearGradient>
    </defs>
</svg>
