<svg width="374" height="100" viewBox="0 0 374 100" fill="none" xmlns="http://www.w3.org/2000/svg">
    <!-- <g filter="url(#filter0_b)"> -->
        <path d="M371.561 39.2237L335.351 95.4166C333.51 98.2736 330.344 100 326.945 100L10 100C4.47718 100 8.35087e-06 95.5229 7.86805e-06 90L8.74229e-07 10C3.91406e-07 4.47719 4.47714 4.27501e-05 10 4.21035e-05L348.264 2.33729e-06C351.711 2.03597e-06 354.915 1.77496 356.743 4.69713L371.633 28.5041C373.688 31.7895 373.66 35.9663 371.561 39.2237Z" fill="url(#paint0_linear)" fill-opacity="0.75"/>
    <!-- </g> -->
    <path d="M64.48 57.708L60.376 57.708L60.376 63L54.688 63L54.688 57.708L41.116 57.708L41.116 53.784L52.996 37.8L59.116 37.8L48.1 52.956L54.868 52.956L54.868 48.24L60.376 48.24L60.376 52.956L64.48 52.956L64.48 57.708ZM77.0243 63.432C74.9363 63.432 73.0763 62.916 71.4443 61.884C69.8123 60.852 68.5283 59.364 67.5923 57.42C66.6803 55.452 66.2243 53.112 66.2243 50.4C66.2243 47.688 66.6803 45.36 67.5923 43.416C68.5283 41.448 69.8123 39.948 71.4443 38.916C73.0763 37.884 74.9363 37.368 77.0243 37.368C79.1123 37.368 80.9723 37.884 82.6043 38.916C84.2363 39.948 85.5083 41.448 86.4203 43.416C87.3563 45.36 87.8243 47.688 87.8243 50.4C87.8243 53.112 87.3563 55.452 86.4203 57.42C85.5083 59.364 84.2363 60.852 82.6043 61.884C80.9723 62.916 79.1123 63.432 77.0243 63.432ZM77.0243 58.5C78.5603 58.5 79.7603 57.84 80.6243 56.52C81.5123 55.2 81.9563 53.16 81.9563 50.4C81.9563 47.64 81.5123 45.6 80.6243 44.28C79.7603 42.96 78.5603 42.3 77.0243 42.3C75.5123 42.3 74.3123 42.96 73.4243 44.28C72.5603 45.6 72.1283 47.64 72.1283 50.4C72.1283 53.16 72.5603 55.2 73.4243 56.52C74.3123 57.84 75.5123 58.5 77.0243 58.5ZM96.4899 51.408C94.6419 51.408 93.1299 50.784 91.9539 49.536C90.8019 48.264 90.2259 46.572 90.2259 44.46C90.2259 42.348 90.8019 40.668 91.9539 39.42C93.1299 38.148 94.6419 37.512 96.4899 37.512C98.3379 37.512 99.8379 38.148 100.99 39.42C102.142 40.668 102.718 42.348 102.718 44.46C102.718 46.572 102.142 48.264 100.99 49.536C99.8379 50.784 98.3379 51.408 96.4899 51.408ZM111.502 37.8L115.786 37.8L98.5779 63L94.2939 63L111.502 37.8ZM96.4899 48.456C97.3059 48.456 97.9419 48.12 98.3979 47.448C98.8779 46.776 99.1179 45.78 99.1179 44.46C99.1179 43.14 98.8779 42.144 98.3979 41.472C97.9419 40.8 97.3059 40.464 96.4899 40.464C95.6979 40.464 95.0619 40.812 94.5819 41.508C94.1019 42.18 93.8619 43.164 93.8619 44.46C93.8619 45.756 94.1019 46.752 94.5819 47.448C95.0619 48.12 95.6979 48.456 96.4899 48.456ZM113.59 63.288C112.39 63.288 111.31 63.012 110.35 62.46C109.414 61.884 108.682 61.068 108.154 60.012C107.626 58.956 107.362 57.732 107.362 56.34C107.362 54.948 107.626 53.724 108.154 52.668C108.682 51.612 109.414 50.808 110.35 50.256C111.31 49.68 112.39 49.392 113.59 49.392C115.438 49.392 116.938 50.028 118.09 51.3C119.266 52.548 119.854 54.228 119.854 56.34C119.854 58.452 119.266 60.144 118.09 61.416C116.938 62.664 115.438 63.288 113.59 63.288ZM113.59 60.336C114.406 60.336 115.042 60 115.498 59.328C115.978 58.632 116.218 57.636 116.218 56.34C116.218 55.044 115.978 54.06 115.498 53.388C115.042 52.692 114.406 52.344 113.59 52.344C112.798 52.344 112.162 52.68 111.682 53.352C111.202 54.024 110.962 55.02 110.962 56.34C110.962 57.66 111.202 58.656 111.682 59.328C112.162 60 112.798 60.336 113.59 60.336Z" fill="white"/>
    <defs>
        <filter id="filter0_b" x="-10" y="-10" width="393.155" height="120" filterUnits="userSpaceOnUse" color-interpolation-filters="sRGB">
            <feFlood flood-opacity="0" result="BackgroundImageFix"/>
            <feGaussianBlur in="BackgroundImage" stdDeviation="5"/>
            <feComposite in2="SourceAlpha" operator="in" result="effect1_backgroundBlur"/>
            <feBlend mode="normal" in="SourceGraphic" in2="effect1_backgroundBlur" result="shape"/>
        </filter>
        <linearGradient id="paint0_linear" x1="494.739" y1="93.0233" x2="45.3342" y2="-29.6485" gradientUnits="userSpaceOnUse">
            <stop stop-color="#274D72" stop-opacity="0.2"/>
            <stop offset="1" stop-color="#274D72"/>
        </linearGradient>
    </defs>
</svg>
