<svg width="414" height="100" viewBox="0 0 414 100" fill="none" xmlns="http://www.w3.org/2000/svg">
    <!-- <g filter="url(#filter0_b)"> -->
        <path d="M2.43897 39.2237L38.6489 95.4166C40.4899 98.2736 43.656 100 47.0548 100L404 100C409.523 100 414 95.5229 414 90L414 10C414 4.47719 409.523 4.28034e-05 404 4.22224e-05L25.7355 2.33729e-06C22.2888 2.03597e-06 19.0851 1.77496 17.2573 4.69713L2.36672 28.5041C0.311821 31.7895 0.339975 35.9663 2.43897 39.2237Z" fill="url(#paint0_linear)" fill-opacity="0.75"/>
    <!-- </g> -->
    <path d="M308.61 47.196C310.218 47.196 311.682 47.52 313.002 48.168C314.322 48.816 315.366 49.74 316.134 50.94C316.902 52.116 317.286 53.484 317.286 55.044C317.286 56.724 316.866 58.2 316.026 59.472C315.186 60.744 314.034 61.728 312.57 62.424C311.13 63.096 309.522 63.432 307.746 63.432C304.218 63.432 301.458 62.352 299.466 60.192C297.474 58.032 296.478 54.948 296.478 50.94C296.478 48.084 297.018 45.636 298.098 43.596C299.178 41.556 300.678 40.008 302.598 38.952C304.542 37.896 306.786 37.368 309.33 37.368C310.674 37.368 311.958 37.524 313.182 37.836C314.43 38.124 315.486 38.544 316.35 39.096L314.19 43.38C312.942 42.54 311.37 42.12 309.474 42.12C307.338 42.12 305.646 42.744 304.398 43.992C303.15 45.24 302.478 47.052 302.382 49.428C303.87 47.94 305.946 47.196 308.61 47.196ZM307.422 59.076C308.67 59.076 309.678 58.74 310.446 58.068C311.238 57.396 311.634 56.484 311.634 55.332C311.634 54.18 311.238 53.268 310.446 52.596C309.678 51.9 308.646 51.552 307.35 51.552C306.078 51.552 305.034 51.912 304.218 52.632C303.402 53.328 302.994 54.228 302.994 55.332C302.994 56.436 303.39 57.336 304.182 58.032C304.974 58.728 306.054 59.076 307.422 59.076ZM330.2 63.432C328.112 63.432 326.252 62.916 324.62 61.884C322.988 60.852 321.704 59.364 320.768 57.42C319.856 55.452 319.4 53.112 319.4 50.4C319.4 47.688 319.856 45.36 320.768 43.416C321.704 41.448 322.988 39.948 324.62 38.916C326.252 37.884 328.112 37.368 330.2 37.368C332.288 37.368 334.148 37.884 335.78 38.916C337.412 39.948 338.684 41.448 339.596 43.416C340.532 45.36 341 47.688 341 50.4C341 53.112 340.532 55.452 339.596 57.42C338.684 59.364 337.412 60.852 335.78 61.884C334.148 62.916 332.288 63.432 330.2 63.432ZM330.2 58.5C331.736 58.5 332.936 57.84 333.8 56.52C334.688 55.2 335.132 53.16 335.132 50.4C335.132 47.64 334.688 45.6 333.8 44.28C332.936 42.96 331.736 42.3 330.2 42.3C328.688 42.3 327.488 42.96 326.6 44.28C325.736 45.6 325.304 47.64 325.304 50.4C325.304 53.16 325.736 55.2 326.6 56.52C327.488 57.84 328.688 58.5 330.2 58.5ZM349.666 51.408C347.818 51.408 346.306 50.784 345.13 49.536C343.978 48.264 343.402 46.572 343.402 44.46C343.402 42.348 343.978 40.668 345.13 39.42C346.306 38.148 347.818 37.512 349.666 37.512C351.514 37.512 353.014 38.148 354.166 39.42C355.318 40.668 355.894 42.348 355.894 44.46C355.894 46.572 355.318 48.264 354.166 49.536C353.014 50.784 351.514 51.408 349.666 51.408ZM364.678 37.8L368.962 37.8L351.754 63L347.47 63L364.678 37.8ZM349.666 48.456C350.482 48.456 351.118 48.12 351.574 47.448C352.054 46.776 352.294 45.78 352.294 44.46C352.294 43.14 352.054 42.144 351.574 41.472C351.118 40.8 350.482 40.464 349.666 40.464C348.874 40.464 348.238 40.812 347.758 41.508C347.278 42.18 347.038 43.164 347.038 44.46C347.038 45.756 347.278 46.752 347.758 47.448C348.238 48.12 348.874 48.456 349.666 48.456ZM366.766 63.288C365.566 63.288 364.486 63.012 363.526 62.46C362.59 61.884 361.858 61.068 361.33 60.012C360.802 58.956 360.538 57.732 360.538 56.34C360.538 54.948 360.802 53.724 361.33 52.668C361.858 51.612 362.59 50.808 363.526 50.256C364.486 49.68 365.566 49.392 366.766 49.392C368.614 49.392 370.114 50.028 371.266 51.3C372.442 52.548 373.03 54.228 373.03 56.34C373.03 58.452 372.442 60.144 371.266 61.416C370.114 62.664 368.614 63.288 366.766 63.288ZM366.766 60.336C367.582 60.336 368.218 60 368.674 59.328C369.154 58.632 369.394 57.636 369.394 56.34C369.394 55.044 369.154 54.06 368.674 53.388C368.218 52.692 367.582 52.344 366.766 52.344C365.974 52.344 365.338 52.68 364.858 53.352C364.378 54.024 364.138 55.02 364.138 56.34C364.138 57.66 364.378 58.656 364.858 59.328C365.338 60 365.974 60.336 366.766 60.336Z" fill="white"/>
    <defs>
        <filter id="filter0_b" x="-9.15503" y="-10" width="433.155" height="120" filterUnits="userSpaceOnUse" color-interpolation-filters="sRGB">
            <feFlood flood-opacity="0" result="BackgroundImageFix"/>
            <feGaussianBlur in="BackgroundImage" stdDeviation="5"/>
            <feComposite in2="SourceAlpha" operator="in" result="effect1_backgroundBlur"/>
            <feBlend mode="normal" in="SourceGraphic" in2="effect1_backgroundBlur" result="shape"/>
        </filter>
        <linearGradient id="paint0_linear" x1="29.3822" y1="95.3379" x2="511.5" y2="95.3379" gradientUnits="userSpaceOnUse">
            <stop stop-color="#FB2454"/>
            <stop offset="1" stop-color="#FB2454" stop-opacity="0"/>
        </linearGradient>
    </defs>
</svg>
