<svg width="120" height="120" viewBox="0 0 120 120" fill="none" xmlns="http://www.w3.org/2000/svg">
    <circle cx="60" cy="60" r="39.5" stroke="#FE3355"/>
    <circle opacity="0.2" cx="60" cy="60" r="59.5" stroke="#FE3355"/>
    <path d="M71.4112 60.8441C70.6147 59.8141 69.4127 59.1066 67.8054 58.7221C69.8522 57.678 70.7517 55.906 70.5048 53.4057C70.4222 52.499 70.1716 51.7133 69.7525 51.0472C69.333 50.381 68.767 49.8454 68.0522 49.4403C67.3381 49.0346 66.5613 48.7258 65.7238 48.5129C64.886 48.3 63.9242 48.1454 62.839 48.0494V42.8569H59.6662V47.9051C59.1168 47.9051 58.2789 47.9188 57.1526 47.9463V42.8569H53.9793V48.0494C53.5259 48.0631 52.8598 48.0701 51.9807 48.0701L47.6125 48.0494V51.4286H49.8995C50.9435 51.4286 51.5548 51.8958 51.7333 52.8297V58.7434C51.8709 58.7434 51.9807 58.7505 52.0632 58.7642H51.7333V67.047C51.6236 67.7474 51.2253 68.0979 50.5384 68.0979H48.2515L47.6127 71.8687H51.7337C51.9947 71.8687 52.3723 71.8721 52.867 71.8783C53.3614 71.8853 53.7321 71.8887 53.9795 71.8887V77.1429H57.1532V71.9505C57.73 71.9646 58.5679 71.9713 59.6668 71.9713V77.1429H62.8397V71.8887C63.9664 71.8339 64.9656 71.7314 65.8375 71.5798C66.7098 71.4281 67.5445 71.1916 68.3411 70.8685C69.1375 70.5459 69.8036 70.1439 70.3393 69.6631C70.8752 69.1827 71.3178 68.5712 71.6687 67.8293C72.0184 67.0874 72.242 66.2289 72.3378 65.2533C72.5171 63.3445 72.2079 61.8745 71.4112 60.8441ZM57.2143 51.6546C57.3105 51.6546 57.5818 51.6512 58.0282 51.6443C58.4749 51.6372 58.8456 51.6304 59.1409 51.6235C59.4363 51.6167 59.8347 51.6339 60.3363 51.6751C60.8376 51.7163 61.26 51.7713 61.6033 51.8399C61.9466 51.9085 62.3247 52.0218 62.7364 52.1798C63.1488 52.3377 63.4783 52.5301 63.7253 52.7567C63.9727 52.9833 64.1822 53.2719 64.3536 53.6222C64.5255 53.9724 64.6114 54.3742 64.6114 54.8274C64.6114 55.2121 64.5497 55.5625 64.4262 55.8786C64.3029 56.1945 64.117 56.459 63.87 56.6719C63.623 56.8848 63.3684 57.0704 63.1073 57.2283C62.8466 57.3861 62.5132 57.5133 62.1081 57.6093C61.7031 57.7055 61.3494 57.7811 61.0474 57.8359C60.7451 57.8909 60.3674 57.9288 59.9141 57.9493C59.4606 57.9698 59.1171 57.9838 58.8837 57.9906C58.6501 57.9974 58.3308 57.9974 57.9255 57.9906C57.52 57.9838 57.2834 57.9802 57.2145 57.9802L57.2143 51.6546ZM65.8789 65.6863C65.7481 66.0024 65.5801 66.2773 65.3742 66.511C65.1679 66.7441 64.8965 66.9503 64.5601 67.1287C64.2238 67.3075 63.8972 67.4515 63.5816 67.5614C63.2655 67.6717 62.8841 67.7674 62.4381 67.8501C61.9911 67.9326 61.5999 67.9906 61.263 68.0252C60.9266 68.0596 60.525 68.0869 60.0578 68.1077C59.5909 68.1279 59.2267 68.1384 58.9658 68.1384C58.7047 68.1384 58.375 68.1346 57.9766 68.1279C57.578 68.1215 57.3241 68.118 57.2142 68.118V61.1533C57.3239 61.1533 57.6502 61.1466 58.1929 61.1326C58.7357 61.1188 59.1785 61.1124 59.5219 61.1124C59.8653 61.1124 60.3394 61.1326 60.944 61.1741C61.5481 61.215 62.0564 61.2766 62.4688 61.359C62.8807 61.4416 63.3303 61.5685 63.8183 61.7404C64.3058 61.912 64.7009 62.1214 65.0032 62.3687C65.3055 62.6164 65.5594 62.9318 65.7654 63.3165C65.9719 63.7011 66.0749 64.1407 66.0749 64.6354C66.0748 65.0204 66.0096 65.3701 65.8789 65.6863Z" fill="white"/>
</svg>