<svg width="476" height="364" viewBox="0 0 476 364" fill="none" xmlns="http://www.w3.org/2000/svg">
    <rect x="110.494" y="48.7173" width="294" height="61" fill="#552B43"/>
    <path d="M138.728 171.744C138.728 165.007 144.783 158.746 155.174 153.515V113.888L134.409 118.437L138.728 132.108V171.736" fill="url(#paint0_linear)"/>
    <path d="M155.173 113.887L39.4611 88.3672C14.5274 100.905 0 115.94 0 132.108H138.696C138.728 125.379 144.783 119.11 155.173 113.887Z" fill="url(#paint1_linear)"/>
    <path d="M155.173 66.3267V113.888L39.4927 88.3675V40.8145L155.173 66.3267Z" fill="url(#paint2_linear)"/>
    <path d="M138.728 132.108H0.0317383V171.744H138.728V132.108Z" fill="url(#paint3_linear)"/>
    <path d="M138.728 172.496C138.728 190.724 183.111 205.513 237.797 205.513C292.483 205.513 336.866 190.732 336.866 172.496V154.743H138.728V172.496Z" fill="url(#paint4_radial)"/>
    <path d="M237.797 187.768C292.511 187.768 336.866 172.982 336.866 154.743C336.866 136.503 292.511 121.717 237.797 121.717C183.083 121.717 138.728 136.503 138.728 154.743C138.728 172.982 183.083 187.768 237.797 187.768Z" fill="url(#paint5_radial)"/>
    <path d="M237.797 185.137C288.156 185.137 328.98 171.529 328.98 154.743C328.98 137.957 288.156 124.349 237.797 124.349C187.438 124.349 146.614 137.957 146.614 154.743C146.614 171.529 187.438 185.137 237.797 185.137Z" stroke="url(#paint6_linear)" stroke-miterlimit="10"/>
    <path d="M247.315 153.784L262.699 145.462H240.491L205.698 164.111H227.906L236.323 159.672L256.025 170.023H278.233L247.315 153.784Z" fill="white"/>
    <path d="M230.632 145.303L219.568 139.47H197.361L219.798 151.263L230.632 145.303Z" fill="white"/>
    <path d="M138.494 112.496C138.494 130.724 182.877 145.513 237.563 145.513C292.249 145.513 336.632 130.732 336.632 112.496V94.7427H138.494V112.496Z" fill="url(#paint7_radial)"/>
    <path d="M237.563 127.768C292.277 127.768 336.632 112.982 336.632 94.7429C336.632 76.5033 292.277 61.7173 237.563 61.7173C182.849 61.7173 138.494 76.5033 138.494 94.7429C138.494 112.982 182.849 127.768 237.563 127.768Z" fill="url(#paint8_radial)"/>
    <path d="M237.563 125.137C287.922 125.137 328.746 111.529 328.746 94.7429C328.746 77.9566 287.922 64.3486 237.563 64.3486C187.204 64.3486 146.38 77.9566 146.38 94.7429C146.38 111.529 187.204 125.137 237.563 125.137Z" stroke="url(#paint9_linear)" stroke-miterlimit="10"/>
    <path d="M247.081 93.7837L262.465 85.4619H240.257L205.465 104.111H227.672L236.089 99.6723L255.791 110.023H277.999L247.081 93.7837Z" fill="white"/>
    <path d="M230.398 85.3034L219.334 79.4702H197.127L219.564 91.2634L230.398 85.3034Z" fill="white"/>
    <path d="M0.0317383 284.024C0.0317383 327.797 106.479 363.279 237.797 363.279V250.999L0.0317383 171.744V284.024Z" fill="url(#paint10_linear)"/>
    <path d="M237.797 250.999V204.769C183.111 204.769 138.728 189.98 138.728 171.744H0.0317383C0.0317383 215.524 106.479 250.999 237.797 250.999Z" fill="url(#paint11_radial)"/>
    <path d="M237.494 363.441C368.804 363.441 475.259 327.959 475.259 284.186V84.7173L237.494 163.972V363.441Z" fill="url(#paint12_linear)"/>
    <path d="M475.563 84.5553C475.563 40.7828 369.108 5.30029 237.798 5.30029C154.985 5.30029 82.062 19.4077 39.4941 40.8145L155.206 66.3266C172.944 57.4105 203.322 51.5297 237.83 51.5297C292.516 51.5297 336.899 66.3187 336.899 84.5553C336.899 102.792 292.516 117.573 237.83 117.573V163.81C369.108 163.81 475.563 128.344 475.563 84.5553Z" fill="url(#paint13_radial)"/>
    <path d="M138.494 50.7785C138.494 69.0072 182.877 83.7962 237.563 83.7962C292.249 83.7962 336.632 69.0151 336.632 50.7785V33.0254H138.494V50.7785Z" fill="url(#paint14_radial)"/>
    <path d="M237.563 66.0511C292.277 66.0511 336.632 51.2651 336.632 33.0256C336.632 14.7861 292.277 0 237.563 0C182.849 0 138.494 14.7861 138.494 33.0256C138.494 51.2651 182.849 66.0511 237.563 66.0511Z" fill="url(#paint15_radial)"/>
    <path d="M237.563 63.42C287.922 63.42 328.746 49.812 328.746 33.0257C328.746 16.2393 287.922 2.63135 237.563 2.63135C187.204 2.63135 146.38 16.2393 146.38 33.0257C146.38 49.812 187.204 63.42 237.563 63.42Z" stroke="url(#paint16_linear)" stroke-miterlimit="10"/>
    <path d="M247.081 32.0664L262.465 23.7446H240.257L205.465 42.3933H227.672L236.089 37.9551L255.791 48.3058H277.999L247.081 32.0664Z" fill="white"/>
    <path d="M230.398 23.5861L219.334 17.7529H197.127L219.564 29.5461L230.398 23.5861Z" fill="white"/>
    <path d="M255.8 343.012L255.8 337.18L281 337.18L281 343.012L255.8 343.012ZM255.8 308.087L281 308.087L281 312.875L265.7 325.439L281 325.439L281 331.199L255.8 331.199L255.8 326.375L271.1 313.847L255.8 313.847L255.8 308.087ZM281.432 290.065C281.432 292.633 280.88 294.961 279.776 297.049C278.648 299.113 277.1 300.745 275.132 301.945C273.14 303.121 270.896 303.709 268.4 303.709C265.904 303.709 263.672 303.121 261.704 301.945C259.712 300.745 258.164 299.113 257.06 297.049C255.932 294.961 255.368 292.621 255.368 290.029C255.368 287.845 255.752 285.877 256.52 284.125C257.288 282.349 258.392 280.861 259.832 279.661L263.288 283.405C261.32 285.109 260.336 287.221 260.336 289.741C260.336 291.301 260.684 292.693 261.38 293.917C262.052 295.141 263 296.101 264.224 296.797C265.448 297.469 266.84 297.805 268.4 297.805C269.96 297.805 271.352 297.469 272.576 296.797C273.8 296.101 274.76 295.141 275.456 293.917C276.128 292.693 276.464 291.301 276.464 289.741C276.464 287.221 275.468 285.109 273.476 283.405L276.932 279.661C278.396 280.861 279.512 282.349 280.28 284.125C281.048 285.901 281.432 287.881 281.432 290.065ZM281.432 264.046C281.432 266.662 280.868 269.026 279.74 271.138C278.612 273.226 277.064 274.87 275.096 276.07C273.104 277.246 270.872 277.834 268.4 277.834C265.928 277.834 263.708 277.246 261.74 276.07C259.748 274.87 258.188 273.226 257.06 271.138C255.932 269.026 255.368 266.662 255.368 264.046C255.368 261.43 255.932 259.078 257.06 256.99C258.188 254.902 259.748 253.258 261.74 252.058C263.708 250.858 265.928 250.258 268.4 250.258C270.872 250.258 273.104 250.858 275.096 252.058C277.064 253.258 278.612 254.902 279.74 256.99C280.868 259.078 281.432 261.43 281.432 264.046ZM276.464 264.046C276.464 262.558 276.128 261.214 275.456 260.014C274.76 258.814 273.8 257.878 272.576 257.206C271.352 256.51 269.96 256.162 268.4 256.162C266.84 256.162 265.448 256.51 264.224 257.206C263 257.878 262.052 258.814 261.38 260.014C260.684 261.214 260.336 262.558 260.336 264.046C260.336 265.534 260.684 266.878 261.38 268.078C262.052 269.278 263 270.226 264.224 270.922C265.448 271.594 266.84 271.93 268.4 271.93C269.96 271.93 271.352 271.594 272.576 270.922C273.8 270.226 274.76 269.278 275.456 268.078C276.128 266.878 276.464 265.534 276.464 264.046ZM281 222.943L265.88 222.979L278.336 230.395L278.336 233.023L266.204 240.403L281 240.403L281 245.875L255.8 245.875L255.8 241.051L271.46 231.619L255.8 222.331L255.8 217.543L281 217.471L281 222.943ZM276.32 191.98L281 191.98L281 211.492L255.8 211.492L255.8 192.448L260.48 192.448L260.48 205.696L265.952 205.696L265.952 193.996L270.488 193.996L270.488 205.696L276.32 205.696L276.32 191.98Z" fill="#FE3355"/>
    <defs>
        <linearGradient id="paint0_linear" x1="134.409" y1="101.409" x2="134.409" y2="174.013" gradientUnits="userSpaceOnUse">
            <stop offset="1" stop-color="#0F2133"/>
        </linearGradient>
        <linearGradient id="paint1_linear" x1="-4.09349e-07" y1="110.238" x2="171.994" y2="157.217" gradientUnits="userSpaceOnUse">
            <stop stop-color="#2E5E82"/>
            <stop offset="1" stop-color="#14273B"/>
        </linearGradient>
        <linearGradient id="paint2_linear" x1="5.99414" y1="40.7173" x2="191.994" y2="146.717" gradientUnits="userSpaceOnUse">
            <stop stop-color="#FE3355"/>
            <stop offset="1" stop-color="#14273B"/>
        </linearGradient>
        <linearGradient id="paint3_linear" x1="-67.5059" y1="205.217" x2="138.494" y2="135.217" gradientUnits="userSpaceOnUse">
            <stop stop-color="#2E5E82"/>
            <stop offset="1" stop-color="#14273B"/>
        </linearGradient>
        <radialGradient id="paint4_radial" cx="0" cy="0" r="1" gradientUnits="userSpaceOnUse" gradientTransform="translate(237.797 180.128) scale(212.697 86.2804)">
            <stop stop-color="#FE3355"/>
            <stop offset="1" stop-color="#14273B"/>
        </radialGradient>
        <radialGradient id="paint5_radial" cx="0" cy="0" r="1" gradientUnits="userSpaceOnUse" gradientTransform="translate(270.494 130.435) rotate(112.496) scale(53.5771 160.718)">
            <stop stop-color="#FF7A9D"/>
            <stop offset="1" stop-color="#FC2454"/>
        </radialGradient>
        <linearGradient id="paint6_linear" x1="150.05" y1="124.239" x2="171.277" y2="196.972" gradientUnits="userSpaceOnUse">
            <stop stop-color="white" stop-opacity="0"/>
            <stop offset="1" stop-color="white"/>
        </linearGradient>
        <radialGradient id="paint7_radial" cx="0" cy="0" r="1" gradientUnits="userSpaceOnUse" gradientTransform="translate(237.563 120.128) scale(212.697 86.2804)">
            <stop stop-color="#FE3355"/>
            <stop offset="1" stop-color="#14273B"/>
        </radialGradient>
        <radialGradient id="paint8_radial" cx="0" cy="0" r="1" gradientUnits="userSpaceOnUse" gradientTransform="translate(270.26 70.4346) rotate(112.496) scale(53.5771 160.718)">
            <stop stop-color="#FF7A9D"/>
            <stop offset="1" stop-color="#FC2454"/>
        </radialGradient>
        <linearGradient id="paint9_linear" x1="149.816" y1="64.2388" x2="171.044" y2="136.972" gradientUnits="userSpaceOnUse">
            <stop stop-color="white" stop-opacity="0"/>
            <stop offset="1" stop-color="white"/>
        </linearGradient>
        <linearGradient id="paint10_linear" x1="-221.506" y1="171.68" x2="257.494" y2="152.717" gradientUnits="userSpaceOnUse">
            <stop stop-color="#14273B"/>
            <stop offset="1" stop-color="white"/>
        </linearGradient>
        <radialGradient id="paint11_radial" cx="0" cy="0" r="1" gradientUnits="userSpaceOnUse" gradientTransform="translate(237.494 171.717) rotate(180) scale(155.5 61.3327)">
            <stop stop-color="#14273B"/>
            <stop offset="1" stop-color="white"/>
        </radialGradient>
        <linearGradient id="paint12_linear" x1="237.494" y1="224.079" x2="545.494" y2="224.079" gradientUnits="userSpaceOnUse">
            <stop stop-color="#FE3355"/>
            <stop offset="1" stop-color="#14273B"/>
        </linearGradient>
        <radialGradient id="paint13_radial" cx="0" cy="0" r="1" gradientUnits="userSpaceOnUse" gradientTransform="translate(257.529 84.5553) scale(361.465 174.586)">
            <stop stop-color="#FE3355"/>
            <stop offset="1" stop-color="#14273B"/>
        </radialGradient>
        <radialGradient id="paint14_radial" cx="0" cy="0" r="1" gradientUnits="userSpaceOnUse" gradientTransform="translate(237.563 58.4108) scale(212.697 86.2804)">
            <stop stop-color="#FE3355"/>
            <stop offset="1" stop-color="#14273B"/>
        </radialGradient>
        <radialGradient id="paint15_radial" cx="0" cy="0" r="1" gradientUnits="userSpaceOnUse" gradientTransform="translate(270.26 8.71728) rotate(112.496) scale(53.5771 160.718)">
            <stop stop-color="#FF7A9D"/>
            <stop offset="1" stop-color="#FC2454"/>
        </radialGradient>
        <linearGradient id="paint16_linear" x1="149.816" y1="2.52151" x2="171.044" y2="75.2546" gradientUnits="userSpaceOnUse">
            <stop stop-color="white" stop-opacity="0"/>
            <stop offset="1" stop-color="white"/>
        </linearGradient>
    </defs>
</svg>
