<svg width="84" height="363" viewBox="0 0 84 363" fill="none" xmlns="http://www.w3.org/2000/svg">
<path opacity="0.1" d="M-9.52494e-06 285L84 285L84 304.44L49.56 304.44L49.56 342.6L84 342.6L84 362.04L-6.15741e-06 362.04L-7.00716e-06 342.6L33.12 342.6L33.12 304.44L-8.67519e-06 304.44L-9.52494e-06 285ZM66 209.806L66 248.806L84 256.246L84 276.166L-1.15476e-05 238.726L-1.23869e-05 219.526L84 181.966L84 202.366L66 209.806ZM51.24 215.926L19.08 229.246L51.24 242.566L51.24 215.926ZM84 119.731L60.6 135.931L60.6 136.891L60.6 153.811L84 153.811L84 173.251L-1.44096e-05 173.251L-1.5999e-05 136.891C-1.63242e-05 129.451 1.23998 123.011 3.71999 117.571C6.19999 112.051 9.71999 107.811 14.28 104.851C18.84 101.891 24.24 100.411 30.48 100.411C36.72 100.411 42.12 101.931 46.68 104.971C51.16 107.931 54.6 112.171 57 117.691L84 98.8509L84 119.731ZM30.48 120.091C25.76 120.091 22.16 121.611 19.68 124.651C17.12 127.691 15.84 132.131 15.84 137.971L15.84 153.811L45.12 153.811L45.12 137.971C45.12 132.131 43.84 127.691 41.28 124.651C38.72 121.611 35.12 120.091 30.48 120.091ZM-1.82668e-05 85.0088L-1.99349e-05 46.8487C-2.03335e-05 37.7287 1.75998 29.6887 5.27998 22.7287C8.71998 15.6887 13.6 10.2487 19.92 6.40875C26.24 2.48874 33.6 0.528742 42 0.528742C50.4 0.528741 57.76 2.48874 64.08 6.40874C70.4 10.2487 75.32 15.6887 78.84 22.7287C82.28 29.6887 84 37.7287 84 46.8487L84 85.0087L-1.82668e-05 85.0088ZM68.04 47.8087C68.04 39.4087 65.72 32.7287 61.08 27.7687C56.36 22.7287 50 20.2087 42 20.2087C34 20.2087 27.68 22.7287 23.04 27.7687C18.32 32.7287 15.96 39.4087 15.96 47.8087L15.96 65.5687L68.04 65.5687L68.04 47.8087Z" fill="url(#paint0_linear)"/>
<defs>
<linearGradient id="paint0_linear" x1="49.75" y1="-67.4293" x2="-111.177" y2="426.214" gradientUnits="userSpaceOnUse">
<stop stop-color="white"/>
<stop offset="1" stop-color="white" stop-opacity="0"/>
</linearGradient>
</defs>
</svg>
