<svg width="44" height="22" viewBox="0 0 44 22" fill="none" xmlns="http://www.w3.org/2000/svg">
    <mask id="path-1-inside-1" fill="white">
        <path d="M22 11C22 13.1756 21.3549 15.3023 20.1462 17.1113C18.9375 18.9202 17.2195 20.3301 15.2095 21.1627C13.1995 21.9952 10.9878 22.2131 8.85401 21.7886C6.72022 21.3642 4.7602 20.3166 3.22183 18.7782C1.68345 17.2398 0.635799 15.2798 0.211362 13.146C-0.213076 11.0122 0.0047612 8.80047 0.837325 6.79048C1.66989 4.78049 3.07979 3.06253 4.88873 1.85383C6.69767 0.645138 8.82441 0 11 0V11H22Z"/>
    </mask>
    <path d="M22 11C22 13.1756 21.3549 15.3023 20.1462 17.1113C18.9375 18.9202 17.2195 20.3301 15.2095 21.1627C13.1995 21.9952 10.9878 22.2131 8.85401 21.7886C6.72022 21.3642 4.7602 20.3166 3.22183 18.7782C1.68345 17.2398 0.635799 15.2798 0.211362 13.146C-0.213076 11.0122 0.0047612 8.80047 0.837325 6.79048C1.66989 4.78049 3.07979 3.06253 4.88873 1.85383C6.69767 0.645138 8.82441 0 11 0V11H22Z" stroke="#FE3355" stroke-width="4" mask="url(#path-1-inside-1)"/>
    <mask id="path-2-inside-2" fill="white">
        <path d="M22 11C22 8.8244 22.6451 6.69767 23.8538 4.88873C25.0625 3.07979 26.7805 1.66989 28.7905 0.837324C30.8005 0.00476002 33.0122 -0.213076 35.146 0.211361C37.2798 0.635799 39.2398 1.68345 40.7782 3.22183C42.3166 4.7602 43.3642 6.72022 43.7886 8.85401C44.2131 10.9878 43.9952 13.1995 43.1627 15.2095C42.3301 17.2195 40.9202 18.9375 39.1113 20.1462C37.3023 21.3549 35.1756 22 33 22L33 11L22 11Z"/>
    </mask>
    <path d="M22 11C22 8.8244 22.6451 6.69767 23.8538 4.88873C25.0625 3.07979 26.7805 1.66989 28.7905 0.837324C30.8005 0.00476002 33.0122 -0.213076 35.146 0.211361C37.2798 0.635799 39.2398 1.68345 40.7782 3.22183C42.3166 4.7602 43.3642 6.72022 43.7886 8.85401C44.2131 10.9878 43.9952 13.1995 43.1627 15.2095C42.3301 17.2195 40.9202 18.9375 39.1113 20.1462C37.3023 21.3549 35.1756 22 33 22L33 11L22 11Z" fill="#FE3355" stroke="#FE3355" stroke-width="2" mask="url(#path-2-inside-2)"/>
</svg>