<svg width="47" height="332" viewBox="0 0 47 332" fill="none" xmlns="http://www.w3.org/2000/svg">
<path opacity="0.1" d="M46.768 312.968C46.768 316.509 46.2987 319.944 45.36 323.272C44.3787 326.557 43.12 329.203 41.584 331.208L33.776 327.688C35.184 325.768 36.3147 323.485 37.168 320.84C38.0213 318.195 38.448 315.549 38.448 312.904C38.448 309.96 38.0213 307.784 37.168 306.376C36.272 304.968 35.0987 304.264 33.648 304.264C32.5813 304.264 31.7067 304.691 31.024 305.544C30.2987 306.355 29.7227 307.421 29.296 308.744C28.8693 310.024 28.4 311.773 27.888 313.992C27.0773 317.405 26.2667 320.2 25.456 322.376C24.6453 324.552 23.344 326.429 21.552 328.008C19.76 329.544 17.3707 330.312 14.384 330.312C11.7813 330.312 9.43467 329.608 7.344 328.2C5.21066 326.792 3.52533 324.68 2.288 321.864C1.05066 319.005 0.431998 315.528 0.431998 311.432C0.431998 308.573 0.773331 305.779 1.456 303.048C2.13866 300.317 3.12 297.928 4.4 295.88L12.272 299.08C9.92533 303.219 8.752 307.357 8.752 311.496C8.752 314.397 9.22133 316.552 10.16 317.96C11.0987 319.325 12.336 320.008 13.872 320.008C15.408 320.008 16.56 319.219 17.328 317.64C18.0533 316.019 18.7787 313.565 19.504 310.28C20.3147 306.867 21.1253 304.072 21.936 301.896C22.7467 299.72 24.0267 297.864 25.776 296.328C27.5253 294.749 29.8933 293.96 32.88 293.96C35.44 293.96 37.7867 294.685 39.92 296.136C42.0107 297.544 43.6747 299.677 44.912 302.536C46.1493 305.395 46.768 308.872 46.768 312.968ZM46.768 265.179C46.768 269.83 45.7653 274.033 43.76 277.787C41.7547 281.499 39.0027 284.422 35.504 286.555C31.9627 288.646 27.9947 289.691 23.6 289.691C19.2053 289.691 15.2587 288.646 11.76 286.555C8.21866 284.422 5.44533 281.499 3.44 277.787C1.43466 274.033 0.431996 269.83 0.431996 265.179C0.431996 260.529 1.43466 256.347 3.44 252.635C5.44533 248.923 8.21866 246.001 11.76 243.867C15.2587 241.734 19.2053 240.667 23.6 240.667C27.9947 240.667 31.9627 241.734 35.504 243.867C39.0027 246.001 41.7547 248.923 43.76 252.635C45.7653 256.347 46.768 260.529 46.768 265.179ZM37.936 265.179C37.936 262.534 37.3387 260.145 36.144 258.011C34.9067 255.878 33.2 254.214 31.024 253.019C28.848 251.782 26.3733 251.163 23.6 251.163C20.8267 251.163 18.352 251.782 16.176 253.019C14 254.214 12.3147 255.878 11.12 258.011C9.88266 260.145 9.264 262.534 9.264 265.179C9.264 267.825 9.88266 270.214 11.12 272.347C12.3147 274.481 14 276.166 16.176 277.403C18.352 278.598 20.8267 279.195 23.6 279.195C26.3733 279.195 28.848 278.598 31.024 277.403C33.2 276.166 34.9067 274.481 36.144 272.347C37.3387 270.214 37.936 267.825 37.936 265.179ZM9.51999 222.507L21.36 222.507L21.36 201.771L29.68 201.771L29.68 222.507L46 222.507L46 232.875L1.19999 232.875L1.19999 199.019L9.51999 199.019L9.51999 222.507ZM9.64799 182.408L9.64799 196.744L1.19999 196.744L1.19999 157.704L9.64799 157.704L9.64799 172.04L46 172.04L46 182.408L9.64799 182.408ZM46.768 112.56C46.768 117.126 45.7867 121.264 43.824 124.976C41.8187 128.646 39.0667 131.547 35.568 133.68C32.0267 135.771 28.0373 136.816 23.6 136.816C19.1627 136.816 15.1947 135.771 11.696 133.68C8.15466 131.547 5.40266 128.646 3.43999 124.976C1.43466 121.264 0.43199 117.104 0.43199 112.496C0.431989 108.614 1.11466 105.115 2.47999 102C3.84532 98.8432 5.80799 96.1978 8.36799 94.0645L14.512 100.72C11.0133 103.75 9.26399 107.504 9.26399 111.984C9.26399 114.758 9.88266 117.232 11.12 119.408C12.3147 121.584 14 123.291 16.176 124.528C18.352 125.723 20.8267 126.32 23.6 126.32C26.3733 126.32 28.848 125.723 31.024 124.528C33.2 123.291 34.9067 121.584 36.144 119.408C37.3387 117.232 37.936 114.758 37.936 111.984C37.936 107.504 36.1653 103.75 32.624 100.72L38.768 94.0645C41.3707 96.1978 43.3547 98.8432 44.72 102C46.0853 105.158 46.768 108.678 46.768 112.56ZM36.4 58.434L36.4 79.234L46 83.202L46 93.826L1.19999 73.858L1.19999 63.618L46 43.586L46 54.466L36.4 58.434ZM28.528 61.698L11.376 68.802L28.528 75.906L28.528 61.698ZM1.19998 19.546C1.19998 15.578 1.86132 12.1433 3.18398 9.242C4.50665 6.298 6.38398 4.03666 8.81598 2.458C11.248 0.879329 14.128 0.0899955 17.456 0.0899954C20.7413 0.0899953 23.6213 0.879328 26.096 2.458C28.528 4.03666 30.4053 6.298 31.728 9.242C33.008 12.1433 33.648 15.578 33.648 19.546L33.648 28.57L46 28.57L46 38.938L1.19998 38.938L1.19998 19.546ZM25.2 20.122C25.2 17.0073 24.5387 14.6393 23.216 13.018C21.8507 11.3967 19.9307 10.586 17.456 10.586C14.9387 10.586 13.0187 11.3967 11.696 13.018C10.3307 14.6393 9.64798 17.0073 9.64799 20.122L9.64799 28.57L25.2 28.57L25.2 20.122Z" fill="url(#paint0_linear)"/>
<defs>
<linearGradient id="paint0_linear" x1="31.75" y1="-58.6399" x2="-98.6541" y2="390.186" gradientUnits="userSpaceOnUse">
<stop stop-color="white"/>
<stop offset="1" stop-color="white" stop-opacity="0"/>
</linearGradient>
</defs>
</svg>
