<svg width="56" height="56" viewBox="0 0 56 56" fill="none" xmlns="http://www.w3.org/2000/svg">
<!-- <g filter="url(#filter0_f)"> -->
<path d="M4 28C4 41.2548 14.7452 52 28 52C41.2548 52 52 41.2548 52 28C52 14.7452 41.2548 4 28 4C14.7452 4 4 14.7452 4 28Z" fill="url(#paint0_linear)"/>
<path d="M37.7269 38.6668L30.4392 27.329L34.0649 21.5176H28.831L20.6318 34.54H25.8657L27.8485 31.4403L32.4929 38.6668H37.7269Z" fill="white"/>
<path d="M26.5087 21.4053L23.9007 17.3335H18.6667L23.9543 25.5688L26.5087 21.4053Z" fill="white"/>
<!-- </g> -->
<defs>
<filter id="filter0_f" x="0" y="0" width="56" height="56" filterUnits="userSpaceOnUse" color-interpolation-filters="sRGB">
<feFlood flood-opacity="0" result="BackgroundImageFix"/>
<feBlend mode="normal" in="SourceGraphic" in2="BackgroundImageFix" result="shape"/>
<feGaussianBlur stdDeviation="2" result="effect1_foregroundBlur"/>
</filter>
<linearGradient id="paint0_linear" x1="7.34884" y1="4" x2="62.8268" y2="11.6711" gradientUnits="userSpaceOnUse">
<stop stop-color="#274D72"/>
<stop offset="1" stop-color="#274D72" stop-opacity="0.2"/>
</linearGradient>
</defs>
</svg>
